# xmcd
#
# Track frame offsets:
#        150
#        11178
#        46866
#        77149
#        105768
#        137207
#
# Disc length: 2273 seconds
#
# Revision: 0
# Processed by: cddbd v1.5.1PL2 Copyright (c) Steve Scherf et al.
# Submitted via: ExactAudioCopy v0.95b3
#
DISCID=4108df06
DTITLE=Scape Feat. D' Empress - Be My Friend (Maxi-Single)
DYEAR=2006
DGENRE=Dance
TTITLE0=Be My Friend (Radio Edit)
TTITLE1=Be My Friend (Michael Gray Remix)
TTITLE2=Be My Friend (Ian Carey Remix)
TTITLE3=Be My Friend (Ian Carey Dub)
TTITLE4=Be My Friend (Seamus Haji Remix)
TTITLE5=Be My Friend (Michael Gray Instrumental)
EXTD=
EXTT0=
EXTT1=
EXTT2=
EXTT3=
EXTT4=
EXTT5=
PLAYORDER=
